<svg width="157" height="157" viewBox="0 0 157 157" fill="none" xmlns="http://www.w3.org/2000/svg">
<mask id="mask0_14_226" style="mask-type:alpha" maskUnits="userSpaceOnUse" x="0" y="0" width="157" height="157">
<rect width="157" height="157" fill="#D9D9D9"/>
</mask>
<g mask="url(#mask0_14_226)">
<path d="M78.5 98.6156L98.6156 78.5L78.5 58.3844L75.3927 61.4917L90.1115 76.2104H56.5854V80.7896H90.1115L75.3927 95.5083L78.5 98.6156ZM78.5278 135.412C70.6593 135.412 63.2601 133.919 56.3303 130.933C49.4005 127.947 43.3729 123.894 38.2475 118.774C33.121 113.654 29.063 107.634 26.0734 100.714C23.0828 93.7928 21.5875 86.3974 21.5875 78.5278C21.5875 70.6593 23.0806 63.2601 26.0669 56.3303C29.0532 49.4005 33.1063 43.3729 38.2262 38.2475C43.3462 33.121 49.3661 29.063 56.2861 26.0734C63.2072 23.0828 70.6026 21.5875 78.4722 21.5875C86.3407 21.5875 93.7399 23.0806 100.67 26.0669C107.6 29.0532 113.627 33.1063 118.753 38.2262C123.879 43.3462 127.937 49.3661 130.927 56.2861C133.917 63.2072 135.412 70.6026 135.412 78.4722C135.412 86.3407 133.919 93.7399 130.933 100.67C127.947 107.6 123.894 113.627 118.774 118.753C113.654 123.879 107.634 127.937 100.714 130.927C93.7928 133.917 86.3974 135.412 78.5278 135.412Z" fill="#1C1B1F"/>
</g>
</svg>
